<svg width="80" height="72" viewBox="0 0 80 72" fill="none" xmlns="http://www.w3.org/2000/svg">
<path d="M28 0L20.68 8H8C3.6 8 0 11.6 0 16V64C0 68.4 3.6 72 8 72H72C76.4 72 80 68.4 80 64V16C80 11.6 76.4 8 72 8H59.32L52 0H28ZM40 60C28.96 60 20 51.04 20 40C20 28.96 28.96 20 40 20C51.04 20 60 28.96 60 40C60 51.04 51.04 60 40 60Z" fill="#F14242"/>
<path d="M39.8 53.6C46.8692 53.6 52.6 47.8692 52.6 40.8C52.6 33.7308 46.8692 28 39.8 28C32.7308 28 27 33.7308 27 40.8C27 47.8692 32.7308 53.6 39.8 53.6Z" fill="#F14242"/>
</svg>
